<svg id="Layer_3" enable-background="new 0 0 64 64" height="512" viewBox="0 0 64 64" width="512" xmlns="http://www.w3.org/2000/svg"><g><path d="m32 57c4.411 0 8-3.589 8-8h-16c0 4.411 3.589 8 8 8z"/><circle cx="42" cy="41" r="2"/><circle cx="22" cy="41" r="2"/><path d="m8 40v12c0 .551.449 1 1 1h3v-14h-3c-.551 0-1 .449-1 1z"/><path d="m24 27h16v2h-16z"/><path d="m55 39h-3v14h3c.551 0 1-.449 1-1v-12c0-.551-.449-1-1-1z"/><path d="m47 31h-30c-1.654 0-3 1.346-3 3v24c0 1.654 1.346 3 3 3h30c1.654 0 3-1.346 3-3v-24c0-1.654-1.346-3-3-3zm-29 10c0-2.206 1.794-4 4-4s4 1.794 4 4-1.794 4-4 4-4-1.794-4-4zm24 8c0 5.514-4.486 10-10 10s-10-4.486-10-10v-1c0-.552.448-1 1-1h18c.552 0 1 .448 1 1zm0-4c-2.206 0-4-1.794-4-4s1.794-4 4-4 4 1.794 4 4-1.794 4-4 4z"/><circle cx="32" cy="19" r="2"/><path d="m16 18c0-.552.448-1 1-1h7c.551 0 1-.449 1-1v-12c0-.551-.449-1-1-1h-20c-.551 0-1 .449-1 1v12c0 .551.449 1 1 1h9c.265 0 .52.105.707.293l2.293 2.293zm-11-13h18v2h-18zm16 4v2h-14v-2zm-16 6v-2h18v2z"/><path d="m60 7h-20c-.551 0-1 .449-1 1v12c0 .551.449 1 1 1h7c.552 0 1 .448 1 1v1.586l2.293-2.293c.187-.188.442-.293.707-.293h9c.551 0 1-.449 1-1v-12c0-.551-.449-1-1-1zm-1 12h-18v-2h18zm-16-4v-2h14v2zm16-4h-18v-2h18z"/><path d="m32 23c-.347 0-.678-.058-1-.142v3.142h2v-3.142c-.322.084-.653.142-1 .142z"/></g></svg>