<svg id="Capa_1" enable-background="new 0 0 512 512" height="512" viewBox="0 0 512 512" width="512" xmlns="http://www.w3.org/2000/svg"><path d="m392 271h45v210h-45z"/><path d="m256 331c-36.216 0-66.513-25.809-73.482-60h-32.518v210h212v-210h-32.518c-6.969 34.191-37.266 60-73.482 60zm-60 90c-8.284 0-15-6.716-15-15 0-8.286 6.716-15 15-15s15 6.714 15 15c0 8.284-6.716 15-15 15zm60 0c-8.284 0-15-6.716-15-15 0-8.286 6.716-15 15-15s15 6.714 15 15c0 8.284-6.716 15-15 15zm60 0c-8.284 0-15-6.716-15-15 0-8.286 6.716-15 15-15s15 6.714 15 15c0 8.284-6.716 15-15 15z"/><path d="m75 271h45v210h-45z"/><path d="m331 211h181v30h-181z"/><path d="m256 301c24.814 0 45-20.186 45-45v-45h-90v45c0 24.814 20.186 45 45 45zm0-60c8.284 0 15 6.714 15 15 0 8.284-6.716 15-15 15s-15-6.716-15-15c0-8.286 6.716-15 15-15z"/><path d="m0 211h181v30h-181z"/><path d="m452 41.532v139.468h60v-45c0-41.726-24.655-77.547-60-94.468z"/><path d="m60 41.532c-35.345 16.921-60 52.742-60 94.468v45h60z"/><path d="m0 466c0 8.291 6.709 15 15 15h30v-210h-45z"/><path d="m422 32.516c-4.942-.716-9.864-1.516-15-1.516h-302c-5.136 0-10.058.8-15 1.516v148.484h332z"/><path d="m467 481h30c8.291 0 15-6.709 15-15v-195h-45z"/></svg>