<svg id="Capa_1" enable-background="new 0 0 512 512" height="512" viewBox="0 0 512 512" width="512" xmlns="http://www.w3.org/2000/svg"><g id="_x3C_Group_x3E__18_"><g><path d="m226 301h15v-30h-60v-45c0-8.27-6.73-15-15-15s-15 6.73-15 15v45h-107.86c-28.307 48.291-5.304 112.514 50.21 130.3-13.172 58.166 30.918 110.7 87.65 110.7 23.03 0 44.07-8.7 60-22.99v-98.01h-15c-24.81 0-45-20.19-45-45s20.19-45 45-45zm242.86-30h-77.86v15c0 24.81-20.19 45-45 45s-45-20.19-45-45v-15h-30v60h-45c-8.27 0-15 6.73-15 15s6.73 15 15 15h45v128.01c15.93 14.29 36.97 22.99 60 22.99 56.686 0 100.835-52.483 87.65-110.7 55.476-17.774 78.539-81.972 50.21-130.3zm-50.21-160.3c13.172-58.163-30.915-110.7-87.65-110.7-23.03 0-44.07 8.7-60 22.99v98.01h15c24.81 0 45 20.19 45 45s-20.19 45-45 45h-15v30h60v45c0 8.27 6.73 15 15 15s15-6.73 15-15v-45h107.86c28.307-48.291 5.304-112.514-50.21-130.3zm-132.65 40.3h-45v-128.01c-15.93-14.29-36.97-22.99-60-22.99-56.686 0-100.834 52.48-87.65 110.7-55.476 17.774-78.539 81.972-50.21 130.3h77.86v-15c0-24.81 20.19-45 45-45s45 20.19 45 45v15h30v-60h45c8.27 0 15-6.73 15-15s-6.73-15-15-15z"/></g></g></svg>