<?xml version="1.0" encoding="utf-8"?>
<!-- Generator: Adobe Illustrator 24.1.0, SVG Export Plug-In . SVG Version: 6.00 Build 0)  -->
<svg version="1.1" id="Layer_1" xmlns="http://www.w3.org/2000/svg" xmlns:xlink="http://www.w3.org/1999/xlink" x="0px" y="0px"
	 viewBox="0 0 512 512" style="enable-background:new 0 0 512 512;" xml:space="preserve">
<g id="Page-1">
	<g id="_x30_05---Online-Dating">
		<path id="Shape" d="M178.7,160.4c5.3-5.4,13.2-7.2,20.3-4.8l159.1,53.2c2.5-4,4.9-8,6.8-11.6c12.2-21.5,18.8-45.8,19.1-70.6
			c0-61.7-39.3-108.3-91.4-108.3c-37.2,0.5-71.8,19.1-92.8,49.8c-1.7,2.7-4.6,4.3-7.7,4.3c-3.1,0-6.1-1.6-7.7-4.3
			c-21-30.7-55.7-49.2-92.8-49.7C39.3,18.3,0,64.8,0,126.5c0,72.2,57.4,142.6,186.1,228.3c3.6,2.4,8.3,2.4,11.9,0
			c9.7-6.5,18.8-12.8,27.7-19.1l-51.8-155C171.4,173.6,173.3,165.7,178.7,160.4z"/>
		<path id="Shape_1_" d="M511.6,444.6l-90.8-103.8c-4-4.5-5.7-10.7-4.6-16.6c1.1-6,4.8-11.1,10.1-14l64.9-34.9
			c0.6-0.3,0.9-0.9,0.8-1.5c0-0.7-0.5-1.2-1.1-1.4l-297.6-99.5c-0.6-0.2-1.2-0.1-1.6,0.4c-0.4,0.4-0.6,1-0.4,1.6l99.5,297.7
			c0.2,0.6,0.7,1.1,1.4,1.1c0.6,0.1,1.2-0.3,1.5-0.8l34.9-64.9c2.9-5.3,8-9,14-10.1c6-1.1,12.1,0.6,16.6,4.6l103.8,90.9
			c0.6,0.6,1.6,0.5,2.2-0.1l23.2-23.2l23.2-23.2C512.1,446.2,512.1,445.2,511.6,444.6L511.6,444.6z"/>
	</g>
</g>
</svg>
